<svg width="38" height="38" viewBox="0 0 38 38" fill="none" xmlns="http://www.w3.org/2000/svg">
<g clip-path="url(#clip0_18_1789)">
<path d="M38 19C38 8.50659 29.4934 0 19 0C8.50659 0 0 8.50659 0 19C0 29.4934 8.50659 38 19 38C29.4934 38 38 29.4934 38 19Z" fill="#4F74BA"/>
<path d="M13.5 26H13C12.7348 26 12.4804 25.8904 12.2929 25.6954C12.1054 25.5004 12 25.2358 12 24.96V14.04C12 13.7642 12.1054 13.4996 12.2929 13.3046C12.4804 13.1096 12.7348 13 13 13H13.5C13.7652 13 14.0196 13.1096 14.2071 13.3046C14.3946 13.4996 14.5 13.7642 14.5 14.04V24.96C14.5 25.2358 14.3946 25.5004 14.2071 25.6954C14.0196 25.8904 13.7652 26 13.5 26ZM19 16.12C19 15.8442 18.8946 15.5796 18.7071 15.3846C18.5196 15.1896 18.2652 15.08 18 15.08H16C15.7348 15.08 15.4804 15.1896 15.2929 15.3846C15.1054 15.5796 15 15.8442 15 16.12V17.03C15 17.0645 15.0132 17.0975 15.0366 17.1219C15.0601 17.1463 15.0918 17.16 15.125 17.16H18.875C18.9082 17.16 18.9399 17.1463 18.9634 17.1219C18.9868 17.0975 19 17.0645 19 17.03V16.12ZM15 24.96C15 25.2358 15.1054 25.5004 15.2929 25.6954C15.4804 25.8904 15.7348 26 16 26H18C18.2652 26 18.5196 25.8904 18.7071 25.6954C18.8946 25.5004 19 25.2358 19 24.96V23.985C19 23.9678 18.9934 23.9512 18.9817 23.939C18.97 23.9268 18.9541 23.92 18.9375 23.92H15.0625C15.0459 23.92 15.03 23.9268 15.0183 23.939C15.0066 23.9512 15 23.9678 15 23.985V24.96Z" fill="white"/>
<path d="M18.9375 18H15.0625C15.028 18 15 18.0311 15 18.0694V22.9306C15 22.9689 15.028 23 15.0625 23H18.9375C18.972 23 19 22.9689 19 22.9306V18.0694C19 18.0311 18.972 18 18.9375 18Z" fill="white"/>
<path d="M22.1333 26H21.0666C20.7838 26 20.5124 25.8946 20.3124 25.7071C20.1124 25.5196 20 25.2652 20 25V13C20 12.7348 20.1124 12.4804 20.3124 12.2929C20.5124 12.1054 20.7838 12 21.0666 12H22.1333C22.4162 12 22.6875 12.1054 22.8875 12.2929C23.0876 12.4804 23.1999 12.7348 23.1999 13V25C23.1999 25.2652 23.0876 25.5196 22.8875 25.7071C22.6875 25.8946 22.4162 26 22.1333 26ZM27.9962 24.9203L26.9219 14.2953C26.8725 13.8062 26.3572 13.4516 25.7709 13.5044L24.7092 13.5981C24.1229 13.6503 23.6876 14.0891 23.7369 14.5781L24.8112 25.2031C24.8606 25.6922 25.3759 26.0469 25.9622 25.9941L27.0239 25.9003C27.6102 25.8481 28.0455 25.4094 27.9962 24.9203Z" fill="white"/>
</g>
<defs>
<clipPath id="clip0_18_1789">
<rect width="38" height="38" fill="white"/>
</clipPath>
</defs>
</svg>
