<svg width="38" height="38" viewBox="0 0 38 38" fill="none" xmlns="http://www.w3.org/2000/svg">
<g clip-path="url(#clip0_18_1727)">
<path d="M38 19C38 8.50659 29.4934 0 19 0C8.50659 0 0 8.50659 0 19C0 29.4934 8.50659 38 19 38C29.4934 38 38 29.4934 38 19Z" fill="#B8A68B"/>
<path d="M19 10.5557V15.6223M17.3111 12.2446H20.6889" stroke="white" stroke-width="2" stroke-linecap="round"/>
<path d="M15.2 20.689H12.6666C12.4427 20.689 12.2279 20.7779 12.0695 20.9363C11.9112 21.0947 11.8222 21.3095 11.8222 21.5334V27.4445M22.8 20.689H25.3333C25.5573 20.689 25.772 20.7779 25.9304 20.9363C26.0888 21.0947 26.1778 21.3095 26.1778 21.5334V27.4445" stroke="white" stroke-width="2" stroke-linejoin="round"/>
<path d="M10.5555 27.4443H27.4444" stroke="white" stroke-width="2" stroke-linecap="round"/>
<path d="M15.2 18.5777L19 15.2L22.8 18.5777V27.4444H15.2V18.5777Z" stroke="white" stroke-width="2" stroke-linecap="round" stroke-linejoin="round"/>
<path d="M19 23.2222V27.4444M17.3111 27.4444H20.6889" stroke="white" stroke-width="2" stroke-linecap="round"/>
</g>
<defs>
<clipPath id="clip0_18_1727">
<rect width="38" height="38" fill="white"/>
</clipPath>
</defs>
</svg>
