<svg width="42" height="42" viewBox="0 0 42 42" fill="none" xmlns="http://www.w3.org/2000/svg">
<g clip-path="url(#clip0_10_956)">
<path d="M42 21C42 9.40202 32.598 0 21 0C9.40202 0 0 9.40202 0 21C0 32.598 9.40202 42 21 42C32.598 42 42 32.598 42 21Z" fill="#83CBFF"/>
<path d="M11.3138 19.7279H30.6862C31.1325 19.7279 31.5 20.047 31.5 20.4332V20.576C31.4475 24.2704 27.9738 27.2848 23.7213 27.2848H23.6162V29.8207H24.4125C24.9375 29.8207 25.3575 30.2321 25.3487 30.7274V31.5H16.625V30.7274C16.625 30.2321 17.0537 29.8207 17.57 29.8207H18.3662V27.2848H18.2787C14.0262 27.2848 10.5438 24.2704 10.5 20.576V20.4407C10.5 20.0461 10.8675 19.7279 11.3138 19.7279Z" fill="white"/>
<path d="M23.625 10.5C22.575 10.5 21.6388 10.9518 21 11.6546C20.6742 11.2929 20.2711 11.0028 19.8182 10.8038C19.3653 10.6047 18.8732 10.5014 18.375 10.5008C16.4412 10.5008 14.875 11.9988 14.875 13.8494V15.5573H14.8838C14.8967 15.992 15.0859 16.4048 15.4111 16.7077C15.7363 17.0107 16.1718 17.1799 16.625 17.1795C17.0784 17.1797 17.514 17.0101 17.8393 16.7069C18.1645 16.4036 18.3535 15.9906 18.3662 15.5556V14.7092C18.3671 14.511 18.4406 14.3194 18.574 14.168C18.7073 14.0166 18.892 13.915 19.0955 13.8812C19.299 13.8473 19.5085 13.8833 19.6871 13.9828C19.8658 14.0823 20.0022 14.239 20.0725 14.4254L20.3 18.0579C20.3 18.5189 20.6062 18.8958 20.9912 18.8958C21.3762 18.8958 21.6825 18.518 21.6825 18.0579L21.91 14.433C21.9805 14.2455 22.1177 14.0878 22.2973 13.9877C22.477 13.8875 22.6875 13.8513 22.8923 13.8853C23.097 13.9194 23.2827 14.0216 23.4166 14.174C23.5506 14.3263 23.6245 14.5191 23.625 14.7185V15.5632H23.6338C23.6458 15.9985 23.8347 16.4121 24.16 16.7157C24.4851 17.0194 24.9212 17.1892 25.375 17.1888C25.8286 17.1889 26.2644 17.0192 26.5895 16.7158C26.9148 16.4124 27.1036 15.9991 27.1162 15.564H27.125V13.8486C27.1245 13.4082 27.0335 12.9721 26.8573 12.5655C26.681 12.1588 26.4229 11.7894 26.0979 11.4784C25.773 11.1675 25.3872 10.921 24.9629 10.7531C24.5387 10.5852 24.084 10.4992 23.625 10.5ZM29.75 12.1793C29.982 12.1793 30.2046 12.0909 30.3688 11.9334C30.5328 11.7759 30.625 11.5624 30.625 11.3397C30.625 11.117 30.5328 10.9034 30.3688 10.746C30.2046 10.5885 29.982 10.5 29.75 10.5C29.518 10.5 29.2954 10.5885 29.1312 10.746C28.9672 10.9034 28.875 11.117 28.875 11.3397C28.875 11.5624 28.9672 11.7759 29.1312 11.9334C29.2954 12.0909 29.518 12.1793 29.75 12.1793ZM13.125 18.057C13.125 18.2796 13.0328 18.4933 12.8687 18.6506C12.7046 18.8081 12.4821 18.8967 12.25 18.8967C12.0179 18.8967 11.7954 18.8081 11.6313 18.6506C11.4672 18.4933 11.375 18.2796 11.375 18.057C11.375 17.8343 11.4672 17.6208 11.6313 17.4633C11.7954 17.3058 12.0179 17.2173 12.25 17.2173C12.4821 17.2173 12.7046 17.3058 12.8687 17.4633C13.0328 17.6208 13.125 17.8343 13.125 18.057Z" fill="white"/>
</g>
<defs>
<clipPath id="clip0_10_956">
<rect width="42" height="42" fill="white"/>
</clipPath>
</defs>
</svg>