<svg width="38" height="38" viewBox="0 0 38 38" fill="none" xmlns="http://www.w3.org/2000/svg">
<g clip-path="url(#clip0_18_1829)">
<path d="M38 19C38 8.50659 29.4934 0 19 0C8.50659 0 0 8.50659 0 19C0 29.4934 8.50659 38 19 38C29.4934 38 38 29.4934 38 19Z" fill="#D75B5B"/>
<g clip-path="url(#clip1_18_1829)">
<path fill-rule="evenodd" clip-rule="evenodd" d="M19.5 9.06787C19.23 9.06787 18.9711 9.17511 18.7802 9.36599C18.5894 9.55688 18.4821 9.81578 18.4821 10.0857V13.2139L14.0212 16.1522C13.8993 16.2324 13.8065 16.3498 13.7567 16.487C13.7068 16.6241 13.7025 16.7737 13.7443 16.9135L13.7457 16.9162H25.4768V16.9135C25.5188 16.7739 25.5147 16.6244 25.4651 16.4872C25.4155 16.3501 25.323 16.2326 25.2013 16.1522L20.5178 13.0674V11.1049H21.3606C21.6306 11.1049 21.8895 10.9977 22.0803 10.8068C22.2712 10.6159 22.3785 10.357 22.3785 10.0871C22.3785 9.81713 22.2712 9.55824 22.0803 9.36735C21.8895 9.17647 21.6306 9.06923 21.3606 9.06923L19.5 9.06787ZM27.9713 20.6172H27.7053V25.9562H27.9713C28.2412 25.9562 28.5001 26.0634 28.691 26.2543C28.8819 26.4452 28.9891 26.7041 28.9891 26.974C28.9891 27.244 28.8819 27.5029 28.691 27.6937C28.5001 27.8846 28.2412 27.9919 27.9713 27.9919H11.2513C10.9813 27.9919 10.7224 27.8846 10.5315 27.6937C10.3406 27.5029 10.2334 27.244 10.2334 26.974C10.2334 26.7041 10.3406 26.4452 10.5315 26.2543C10.7224 26.0634 10.9813 25.9562 11.2513 25.9562H11.5173V20.6158H11.2513C10.9813 20.6158 10.7224 20.5086 10.5315 20.3177C10.3406 20.1268 10.2334 19.8679 10.2334 19.5979C10.2334 19.328 10.3406 19.0691 10.5315 18.8782C10.7224 18.6873 10.9813 18.5801 11.2513 18.5801H27.9713C28.2412 18.5801 28.5001 18.6873 28.691 18.8782C28.8819 19.0691 28.9891 19.328 28.9891 19.5979C28.9891 19.8679 28.8819 20.1268 28.691 20.3177C28.5001 20.5086 28.2412 20.6158 27.9713 20.6158V20.6172ZM25.1131 20.6172H23.4167V25.9562H25.1131V20.6158V20.6172ZM15.5833 20.6172H13.8868V25.9562H15.5833V20.6158V20.6172ZM20.7988 25.9562V23.0926C20.7988 22.7575 20.6656 22.4361 20.4287 22.1992C20.1917 21.9622 19.8704 21.8291 19.5353 21.8291C19.2002 21.8291 18.8788 21.9622 18.6418 22.1992C18.4049 22.4361 18.2718 22.7575 18.2718 23.0926V25.9562H20.7988Z" fill="white"/>
</g>
</g>
<defs>
<clipPath id="clip0_18_1829">
<rect width="38" height="38" fill="white"/>
</clipPath>
<clipPath id="clip1_18_1829">
<rect width="19" height="19" fill="white" transform="translate(10 9)"/>
</clipPath>
</defs>
</svg>
