<svg width="38" height="38" viewBox="0 0 38 38" fill="none" xmlns="http://www.w3.org/2000/svg">
<g clip-path="url(#clip0_18_1766)">
<path d="M38 19C38 8.50659 29.4934 0 19 0C8.50659 0 0 8.50659 0 19C0 29.4934 8.50659 38 19 38C29.4934 38 38 29.4934 38 19Z" fill="#7CBC5E"/>
<path d="M18 28V23.74C17.53 23.91 17.03 24 16.5 24C14 24 12 22 12 19.5C12 18.23 12.5 17.09 13.36 16.27C13.13 15.73 13 15.13 13 14.5C13 12 15 10 17.5 10C19.06 10 20.44 10.8 21.25 12H21.5C22.2223 12 22.9375 12.1423 23.6048 12.4187C24.272 12.6951 24.8784 13.1002 25.3891 13.6109C25.8998 14.1216 26.3049 14.728 26.5813 15.3952C26.8577 16.0625 27 16.7777 27 17.5C27 18.2223 26.8577 18.9375 26.5813 19.6048C26.3049 20.272 25.8998 20.8784 25.3891 21.3891C24.8784 21.8998 24.272 22.3049 23.6048 22.5813C22.9375 22.8577 22.2223 23 21.5 23C21 23 20.5 22.93 20 22.79V28H18Z" fill="white"/>
</g>
<defs>
<clipPath id="clip0_18_1766">
<rect width="38" height="38" fill="white"/>
</clipPath>
</defs>
</svg>
