<svg width="38" height="38" viewBox="0 0 38 38" fill="none" xmlns="http://www.w3.org/2000/svg">
<g clip-path="url(#clip0_18_1821)">
<path d="M38 19C38 8.50659 29.4934 0 19 0C8.50659 0 0 8.50659 0 19C0 29.4934 8.50659 38 19 38C29.4934 38 38 29.4934 38 19Z" fill="#E3DF8B"/>
<path d="M13.613 14.53C14.2692 13.7376 15.0924 13.1 16.0236 12.6626C16.9548 12.2253 17.9712 11.999 19 12C21.166 12 23.102 12.984 24.386 14.53C23.746 14.913 23.061 15.23 22.341 15.472C22.2169 15.5154 22.1149 15.606 22.0571 15.7241C21.9993 15.8422 21.9904 15.9783 22.0322 16.1029C22.074 16.2276 22.1632 16.3307 22.2805 16.3901C22.3978 16.4494 22.5338 16.4602 22.659 16.42C23.474 16.146 24.249 15.784 24.971 15.345C25.6457 16.4446 26.002 17.7099 26 19C26 20.344 25.621 21.6 24.965 22.666C24.2385 22.2242 23.4651 21.8646 22.659 21.594C22.5338 21.5538 22.3978 21.5646 22.2805 21.6239C22.1632 21.6833 22.074 21.7864 22.0322 21.9111C21.9904 22.0357 21.9993 22.1718 22.0571 22.2899C22.1149 22.408 22.2169 22.4986 22.341 22.542C23.058 22.782 23.741 23.098 24.379 23.48C23.7227 24.2695 22.9004 24.9046 21.9707 25.3402C21.041 25.7757 20.0267 26.001 19 26C17.9733 26.0011 16.959 25.7758 16.0293 25.3403C15.0996 24.9047 14.2773 24.2695 13.621 23.48C14.2647 23.0951 14.948 22.7806 15.659 22.542C15.722 22.5218 15.7804 22.4892 15.8308 22.4462C15.8812 22.4032 15.9225 22.3507 15.9524 22.2916C15.9823 22.2325 16.0001 22.1681 16.0049 22.102C16.0097 22.036 16.0013 21.9697 15.9803 21.9069C15.9592 21.8441 15.9259 21.7862 15.8822 21.7364C15.8386 21.6866 15.7855 21.6459 15.726 21.6168C15.6666 21.5877 15.6019 21.5707 15.5358 21.5668C15.4697 21.5629 15.4035 21.5721 15.341 21.594C14.528 21.867 13.756 22.228 13.035 22.666C12.3561 21.5639 11.9977 20.2944 12 19C12 17.66 12.376 16.409 13.029 15.345C13.751 15.785 14.526 16.146 15.341 16.42C15.4662 16.4602 15.6022 16.4494 15.7195 16.3901C15.8368 16.3307 15.926 16.2276 15.9678 16.1029C16.0096 15.9783 16.0007 15.8422 15.9429 15.7241C15.8851 15.606 15.7831 15.5154 15.659 15.472C14.945 15.2323 14.259 14.9162 13.613 14.529V14.53ZM19 11C16.8783 11 14.8434 11.8429 13.3431 13.3431C11.8429 14.8434 11 16.8783 11 19C11 21.1217 11.8429 23.1566 13.3431 24.6569C14.8434 26.1571 16.8783 27 19 27C21.1217 27 23.1566 26.1571 24.6569 24.6569C26.1571 23.1566 27 21.1217 27 19C27 16.8783 26.1571 14.8434 24.6569 13.3431C23.1566 11.8429 21.1217 11 19 11ZM17.567 15.917C18.5176 16.0467 19.4814 16.0467 20.432 15.917C20.5634 15.8991 20.6966 15.9341 20.8021 16.0144C20.9077 16.0947 20.9771 16.2136 20.995 16.345C21.0129 16.4764 20.9779 16.6096 20.8976 16.7151C20.8173 16.8207 20.6984 16.8901 20.567 16.908C19.5268 17.0499 18.4722 17.0499 17.432 16.908C17.3049 16.8853 17.1916 16.8144 17.1156 16.7101C17.0396 16.6058 17.0069 16.4761 17.0244 16.3482C17.0418 16.2203 17.108 16.1041 17.2091 16.024C17.3103 15.9438 17.4385 15.9058 17.567 15.918V15.917ZM17.567 22.097C18.5176 21.9674 19.4814 21.9674 20.432 22.097C20.5634 22.1149 20.6966 22.0799 20.8021 21.9996C20.9077 21.9193 20.9771 21.8004 20.995 21.669C21.0129 21.5376 20.9779 21.4044 20.8976 21.2989C20.8173 21.1933 20.6984 21.1239 20.567 21.106C19.5268 20.9642 18.4722 20.9642 17.432 21.106C17.3649 21.1124 17.2998 21.1322 17.2406 21.1644C17.1814 21.1965 17.1293 21.2403 17.0874 21.2931C17.0456 21.3459 17.0148 21.4067 16.997 21.4717C16.9792 21.5366 16.9747 21.6046 16.9838 21.6713C16.9929 21.7381 17.0154 21.8023 17.05 21.8602C17.0845 21.918 17.1304 21.9683 17.1849 22.008C17.2394 22.0476 17.3013 22.0759 17.367 22.091C17.4326 22.1061 17.5007 22.1078 17.567 22.096V22.097Z" fill="white"/>
</g>
<defs>
<clipPath id="clip0_18_1821">
<rect width="38" height="38" fill="white"/>
</clipPath>
</defs>
</svg>
