<svg width="38" height="38" viewBox="0 0 38 38" fill="none" xmlns="http://www.w3.org/2000/svg">
<g clip-path="url(#clip0_18_1812)">
<path d="M38 19C38 8.50659 29.4934 0 19 0C8.50659 0 0 8.50659 0 19C0 29.4934 8.50659 38 19 38C29.4934 38 38 29.4934 38 19Z" fill="#50ABEC"/>
<path d="M14.3279 14.9382C15.1708 15.0374 15.7658 15.3491 16.375 15.9582L17.0833 16.6666L14.7812 18.9686C15.0008 19.0536 15.1779 19.1599 15.3266 19.2449C15.5887 19.4078 15.7445 19.4999 16.1412 19.4999C16.5379 19.4999 16.6937 19.4078 16.9558 19.2449C17.2816 19.0536 17.7208 18.7916 18.507 18.7916C19.2933 18.7916 19.7325 19.0536 20.0512 19.2449C20.3133 19.4007 20.4762 19.4999 20.8658 19.4999C21.2554 19.4999 21.4183 19.4078 21.6804 19.2449C21.7654 19.1953 21.8645 19.1386 21.9708 19.082L17.4233 14.5416C16.5308 13.6491 15.695 13.2666 14.4625 13.1603C13.9666 13.1178 13.5416 13.5216 13.5416 14.0174V14.0811C13.5416 14.5274 13.8887 14.8816 14.3279 14.9382ZM25.1229 24.3945C25.0025 24.352 24.8962 24.2882 24.7687 24.2032C24.45 24.012 24.0108 23.7499 23.2245 23.7499C22.4383 23.7499 21.9991 24.012 21.6804 24.2032C21.4183 24.3661 21.2554 24.4582 20.8658 24.4582C20.4762 24.4582 20.3133 24.3591 20.0512 24.2032C19.7325 24.012 19.2933 23.7499 18.507 23.7499C17.7208 23.7499 17.2816 24.012 16.9558 24.2032C16.6937 24.3661 16.5379 24.4582 16.1412 24.4582C15.7445 24.4582 15.5887 24.3661 15.3266 24.2032C15.0079 24.012 14.5687 23.7499 13.7825 23.7499C12.9962 23.7499 12.557 24.012 12.2312 24.2032C12.1037 24.2811 11.9975 24.3449 11.877 24.3945C11.6079 24.4866 11.4166 24.7132 11.4166 24.9966V25.0816C11.4166 25.5561 11.8841 25.882 12.3375 25.7261C12.5995 25.6341 12.7979 25.5136 12.9679 25.4145C13.23 25.2586 13.3929 25.1666 13.7825 25.1666C14.172 25.1666 14.335 25.2586 14.597 25.4216C14.9158 25.6128 15.355 25.8749 16.1412 25.8749C16.9275 25.8749 17.3666 25.6128 17.6925 25.4216C17.9545 25.2586 18.1104 25.1666 18.507 25.1666C18.8966 25.1666 19.0595 25.2657 19.3216 25.4216C19.6404 25.6128 20.0795 25.8749 20.8658 25.8749C21.652 25.8749 22.0841 25.6128 22.41 25.4216C22.672 25.2586 22.8279 25.1666 23.2245 25.1666C23.6141 25.1666 23.777 25.2657 24.0391 25.4216C24.202 25.5207 24.4004 25.6411 24.6625 25.7332C25.1087 25.8891 25.5833 25.5632 25.5833 25.0886V25.0036C25.5833 24.7132 25.392 24.4866 25.1229 24.3945ZM12.2029 22.5811C12.5358 22.4891 12.7766 22.3474 12.975 22.2341C13.237 22.0711 13.4 21.9791 13.7895 21.9791C14.1791 21.9791 14.342 22.0782 14.6041 22.2341C14.9229 22.4253 15.362 22.6874 16.1483 22.6874C16.9345 22.6874 17.3737 22.4253 17.6925 22.2341C17.9545 22.0711 18.1104 21.9791 18.507 21.9791C18.8966 21.9791 19.0595 22.0782 19.3216 22.2341C19.6404 22.4253 20.0795 22.6874 20.8658 22.6874C21.652 22.6874 22.0912 22.4253 22.41 22.2341C22.672 22.0711 22.8279 21.9791 23.2245 21.9791C23.6141 21.9791 23.777 22.0782 24.0391 22.2341C24.202 22.3332 24.3933 22.4466 24.6412 22.5386C24.7453 22.5762 24.8568 22.5883 24.9665 22.5739C25.0761 22.5595 25.1808 22.5191 25.2716 22.456C25.3625 22.3929 25.4369 22.3089 25.4887 22.2112C25.5404 22.1134 25.568 22.0047 25.5691 21.8941V21.8091C25.5691 21.5257 25.3779 21.2991 25.1158 21.1999C24.9954 21.1574 24.8891 21.0936 24.7545 21.0157C24.4358 20.8245 23.9966 20.5624 23.2104 20.5624C22.4241 20.5624 21.985 20.8245 21.6662 21.0157C21.4041 21.1786 21.2412 21.2707 20.8516 21.2707C20.462 21.2707 20.2991 21.1716 20.037 21.0157C19.7183 20.8245 19.2791 20.5624 18.4929 20.5624C17.7066 20.5624 17.2675 20.8245 16.9487 21.0157C16.6866 21.1786 16.5308 21.2707 16.1341 21.2707C15.7445 21.2707 15.5816 21.1716 15.3195 21.0157C15.0008 20.8245 14.5616 20.5624 13.7754 20.5624C12.9891 20.5624 12.55 20.8245 12.2312 21.0157C12.1037 21.0936 11.9975 21.1574 11.877 21.207C11.6079 21.2991 11.4166 21.5257 11.4166 21.8091V21.972C11.4166 22.3828 11.8062 22.6945 12.2029 22.5811Z" fill="white"/>
<path d="M21.6875 16.6667C22.6655 16.6667 23.4583 15.8738 23.4583 14.8958C23.4583 13.9178 22.6655 13.125 21.6875 13.125C20.7095 13.125 19.9166 13.9178 19.9166 14.8958C19.9166 15.8738 20.7095 16.6667 21.6875 16.6667Z" fill="white"/>
</g>
<defs>
<clipPath id="clip0_18_1812">
<rect width="38" height="38" fill="white"/>
</clipPath>
</defs>
</svg>
