<svg width="38" height="38" viewBox="0 0 38 38" fill="none" xmlns="http://www.w3.org/2000/svg">
<g clip-path="url(#clip0_18_1782)">
<path d="M38 19C38 8.50659 29.4934 0 19 0C8.50659 0 0 8.50659 0 19C0 29.4934 8.50659 38 19 38C29.4934 38 38 29.4934 38 19Z" fill="#999999"/>
<path d="M15.9583 24.875L18.0833 22.0417M22.3333 24.875L20.9166 22.0417L18.7916 19.9167L19.5 15.6667M19.5 12.8333C19.5 13.0212 19.5746 13.2014 19.7074 13.3342C19.8403 13.467 20.0205 13.5417 20.2083 13.5417C20.3962 13.5417 20.5763 13.467 20.7092 13.3342C20.842 13.2014 20.9166 13.0212 20.9166 12.8333C20.9166 12.6455 20.842 12.4653 20.7092 12.3325C20.5763 12.1996 20.3962 12.125 20.2083 12.125C20.0205 12.125 19.8403 12.1996 19.7074 12.3325C19.5746 12.4653 19.5 12.6455 19.5 12.8333Z" stroke="white" stroke-width="2" stroke-linecap="round" stroke-linejoin="round"/>
<path d="M15.25 18.5001L16.6667 16.3751L19.5 15.6667L21.625 17.7917L23.75 18.5001" stroke="white" stroke-width="2" stroke-linecap="round" stroke-linejoin="round"/>
</g>
<defs>
<clipPath id="clip0_18_1782">
<rect width="38" height="38" fill="white"/>
</clipPath>
</defs>
</svg>
