<svg width="30" height="30" viewBox="0 0 30 30" fill="none" xmlns="http://www.w3.org/2000/svg">
<rect width="30" height="30" rx="15" fill="#5F259F"/>
<path d="M19.0834 9.75H10.9167C10.0919 9.75 9.67944 9.75 9.42335 9.99033C9.16669 10.2307 9.16669 10.618 9.16669 11.3921V11.7946C9.16669 12.3995 9.16669 12.7023 9.31835 12.9531C9.47002 13.2039 9.74594 13.3602 10.2995 13.6718L11.9988 14.6284C12.3698 14.8373 12.5559 14.9417 12.6889 15.0572C12.9654 15.2969 13.1357 15.5793 13.2127 15.9263C13.25 16.092 13.25 16.2868 13.25 16.6759V18.2334C13.25 18.7637 13.25 19.0291 13.397 19.2356C13.544 19.4427 13.8054 19.5448 14.3269 19.7489C15.4229 20.1771 15.9707 20.3912 16.3604 20.1473C16.75 19.9041 16.75 19.347 16.75 18.2328V16.6753C16.75 16.2868 16.75 16.092 16.7874 15.9258C16.8606 15.5858 17.0452 15.2799 17.3118 15.0566C17.4442 14.9417 17.6303 14.8373 18.0013 14.6278L19.7005 13.6712C20.2535 13.3603 20.5306 13.2045 20.6817 12.9537C20.8334 12.7028 20.8334 12.3995 20.8334 11.794V11.3915C20.8334 10.618 20.8334 10.2307 20.5767 9.99033C20.3212 9.75 19.9088 9.75 19.0834 9.75Z" fill="#FCFBFD"/>
</svg>
