<svg width="27" height="26" viewBox="0 0 27 26" fill="none" xmlns="http://www.w3.org/2000/svg">
<path d="M10.5 6.5H22.6875M10.5 13H17.8125M10.5 19.5H22.6875M6.4375 19.5C6.4375 19.7155 6.3519 19.9222 6.19952 20.0745C6.04715 20.2269 5.84049 20.3125 5.625 20.3125C5.40951 20.3125 5.20285 20.2269 5.05048 20.0745C4.8981 19.9222 4.8125 19.7155 4.8125 19.5C4.8125 19.2845 4.8981 19.0778 5.05048 18.9255C5.20285 18.7731 5.40951 18.6875 5.625 18.6875C5.84049 18.6875 6.04715 18.7731 6.19952 18.9255C6.3519 19.0778 6.4375 19.2845 6.4375 19.5ZM6.4375 13C6.4375 13.2155 6.3519 13.4222 6.19952 13.5745C6.04715 13.7269 5.84049 13.8125 5.625 13.8125C5.40951 13.8125 5.20285 13.7269 5.05048 13.5745C4.8981 13.4222 4.8125 13.2155 4.8125 13C4.8125 12.7845 4.8981 12.5778 5.05048 12.4255C5.20285 12.2731 5.40951 12.1875 5.625 12.1875C5.84049 12.1875 6.04715 12.2731 6.19952 12.4255C6.3519 12.5778 6.4375 12.7845 6.4375 13ZM6.4375 6.5C6.4375 6.71549 6.3519 6.92215 6.19952 7.07452C6.04715 7.2269 5.84049 7.3125 5.625 7.3125C5.40951 7.3125 5.20285 7.2269 5.05048 7.07452C4.8981 6.92215 4.8125 6.71549 4.8125 6.5C4.8125 6.28451 4.8981 6.07785 5.05048 5.92548C5.20285 5.7731 5.40951 5.6875 5.625 5.6875C5.84049 5.6875 6.04715 5.7731 6.19952 5.92548C6.3519 6.07785 6.4375 6.28451 6.4375 6.5Z" stroke="#5F259F" stroke-width="2" stroke-linecap="round"/>
</svg>