<svg width="27" height="26" viewBox="0 0 27 26" fill="none" xmlns="http://www.w3.org/2000/svg">
<path fill-rule="evenodd" clip-rule="evenodd" d="M13.25 11.05C13.9395 11.05 14.6008 10.776 15.0884 10.2885C15.576 9.80086 15.85 9.13954 15.85 8.44998C15.85 7.76041 15.576 7.09909 15.0884 6.6115C14.6008 6.1239 13.9395 5.84998 13.25 5.84998C12.5604 5.84998 11.8991 6.1239 11.4115 6.6115C10.9239 7.09909 10.65 7.76041 10.65 8.44998C10.65 9.13954 10.9239 9.80086 11.4115 10.2885C11.8991 10.776 12.5604 11.05 13.25 11.05ZM13.25 7.14998C13.5947 7.14998 13.9254 7.28694 14.1692 7.53074C14.413 7.77453 14.55 8.10519 14.55 8.44998C14.55 8.79476 14.413 9.12542 14.1692 9.36922C13.9254 9.61301 13.5947 9.74998 13.25 9.74998C12.9052 9.74998 12.5745 9.61301 12.3307 9.36922C12.0869 9.12542 11.95 8.79476 11.95 8.44998C11.95 8.10519 12.0869 7.77453 12.3307 7.53074C12.5745 7.28694 12.9052 7.14998 13.25 7.14998Z" fill="#5F259F"/>
<path fill-rule="evenodd" clip-rule="evenodd" d="M7.39996 8.17175C7.39996 11.6466 10.8489 17.5499 13.25 17.5499C15.6524 17.5499 19.1 11.6466 19.1 8.17175C19.1 4.74495 16.4909 1.94995 13.25 1.94995C10.0091 1.94995 7.39996 4.74495 7.39996 8.17175ZM17.8 8.17175C17.8 11.0226 14.7476 16.2499 13.25 16.2499C11.7537 16.2499 8.69996 11.0239 8.69996 8.17175C8.69996 5.44305 10.7475 3.24995 13.25 3.24995C15.7525 3.24995 17.8 5.44305 17.8 8.17175Z" fill="#5F259F"/>
<path d="M17.7155 11.882C17.56 11.8151 17.4368 11.6903 17.372 11.534C17.3072 11.3777 17.3058 11.2022 17.3683 11.045C17.4308 10.8877 17.5521 10.761 17.7065 10.6918C17.8609 10.6226 18.0362 10.6163 18.1952 10.6743C18.7238 10.884 19.2002 11.2067 19.5909 11.6199C19.9817 12.0331 20.2773 12.5268 20.4572 13.0663L22.1914 18.2663C22.3869 18.8528 22.4403 19.4773 22.347 20.0885C22.2537 20.6996 22.0165 21.2798 21.6548 21.7813C21.2932 22.2827 20.8176 22.691 20.2671 22.9724C19.7167 23.2539 19.1072 23.4004 18.489 23.4H8.01097C7.39297 23.4 6.78381 23.2531 6.2337 22.9715C5.68359 22.6899 5.20828 22.2816 4.84695 21.7802C4.48562 21.2789 4.24861 20.6988 4.15546 20.0878C4.06231 19.4769 4.11568 18.8526 4.31117 18.2663L6.04407 13.0663C6.22705 12.5171 6.52999 12.0155 6.93091 11.598C7.33183 11.1804 7.82067 10.8573 8.36197 10.6522C8.44178 10.6219 8.52678 10.6076 8.61211 10.6102C8.69745 10.6127 8.78144 10.632 8.8593 10.667C8.93716 10.702 9.00737 10.752 9.06591 10.8142C9.12444 10.8763 9.17017 10.9494 9.20047 11.0292C9.23078 11.109 9.24506 11.194 9.24251 11.2793C9.23997 11.3647 9.22064 11.4487 9.18563 11.5265C9.15062 11.6044 9.10062 11.6746 9.03848 11.7331C8.97634 11.7917 8.90328 11.8374 8.82347 11.8677C8.46215 12.0044 8.13583 12.2199 7.86823 12.4985C7.60063 12.7771 7.39848 13.1119 7.27647 13.4784L5.54357 18.6784C5.41339 19.0693 5.37795 19.4855 5.44018 19.8927C5.50241 20.3 5.66052 20.6866 5.90148 21.0207C6.14245 21.3549 6.45937 21.627 6.82613 21.8147C7.1929 22.0023 7.599 22.1001 8.01097 22.1H18.4916C18.9036 22.1 19.3097 22.002 19.6764 21.8142C20.0432 21.6264 20.36 21.3541 20.6008 21.0198C20.8417 20.6855 20.9996 20.2988 21.0617 19.8915C21.1237 19.4842 21.0881 19.0679 20.9577 18.6771L19.2261 13.4771C19.1061 13.1176 18.9089 12.7886 18.6484 12.5133C18.3879 12.238 18.0704 12.023 17.7181 11.8833L17.7155 11.882Z" fill="#5F259F"/>
</svg>