<svg width="30" height="30" viewBox="0 0 30 30" fill="none" xmlns="http://www.w3.org/2000/svg">
<rect width="30" height="30" rx="15" fill="#5F259F"/>
<path d="M20.4876 19.5224L17.9148 16.9496C18.5343 16.125 18.8686 15.1213 18.8675 14.09C18.8675 11.4557 16.7243 9.3125 14.09 9.3125C11.4557 9.3125 9.3125 11.4557 9.3125 14.09C9.3125 16.7243 11.4557 18.8675 14.09 18.8675C15.1213 18.8686 16.125 18.5343 16.9496 17.9148L19.5224 20.4876C19.6526 20.604 19.8225 20.6662 19.9971 20.6613C20.1717 20.6564 20.3378 20.5849 20.4613 20.4613C20.5849 20.3378 20.6564 20.1717 20.6613 19.9971C20.6662 19.8225 20.604 19.6526 20.4876 19.5224ZM10.6775 14.09C10.6775 13.4151 10.8776 12.7553 11.2526 12.1941C11.6276 11.6329 12.1605 11.1955 12.7841 10.9373C13.4076 10.679 14.0938 10.6114 14.7557 10.7431C15.4177 10.8747 16.0258 11.1998 16.503 11.677C16.9802 12.1542 17.3053 12.7623 17.4369 13.4243C17.5686 14.0862 17.501 14.7724 17.2427 15.3959C16.9845 16.0195 16.5471 16.5524 15.9859 16.9274C15.4247 17.3024 14.7649 17.5025 14.09 17.5025C13.1853 17.5014 12.3179 17.1415 11.6782 16.5018C11.0385 15.8621 10.6786 14.9947 10.6775 14.09Z" fill="#FCFBFD"/>
</svg>
